<svg width="33" height="36" viewBox="0 0 33 36" fill="none" xmlns="http://www.w3.org/2000/svg">
<g clip-path="url(#clip0_1665_1162)">
<path d="M26.8434 18.9613C26.8269 16.0214 28.1899 13.8024 30.9488 12.1682C29.4051 10.0134 27.0733 8.82777 23.9942 8.59546C21.0794 8.37116 17.8936 10.2537 16.7276 10.2537C15.496 10.2537 12.6715 8.67557 10.4546 8.67557C5.87292 8.74766 1.00391 12.2403 1.00391 19.3458C1.00391 21.4446 1.39803 23.6128 2.18626 25.8505C3.23725 28.7904 7.03065 36 10.9883 35.8798C13.0574 35.8318 14.5189 34.4459 17.2121 34.4459C19.8231 34.4459 21.1779 35.8798 23.4851 35.8798C27.4756 35.8238 30.9077 29.271 31.9094 26.3231C26.556 23.8638 26.8434 19.1135 26.8434 18.9613ZM22.196 5.80774C24.4376 3.21228 24.2323 0.849132 24.1666 0C22.1878 0.11215 19.897 1.31375 18.5915 2.79573C17.1546 4.38184 16.3089 6.34446 16.4895 8.55541C18.6325 8.71562 20.5867 7.64219 22.196 5.80774Z" fill="black"/>
</g>
<defs>
<clipPath id="clip0_1665_1162">
<rect width="32.9143" height="36" fill="white"/>
</clipPath>
</defs>
</svg>
