<svg width="19" height="19" viewBox="0 0 19 19" fill="none" xmlns="http://www.w3.org/2000/svg">
<mask id="mask0_1542_5281" style="mask-type:alpha" maskUnits="userSpaceOnUse" x="0" y="0" width="19" height="19">
<rect x="0.451172" y="0.5" width="18" height="18" fill="#D9D9D9"/>
</mask>
<g mask="url(#mask0_1542_5281)">
<path d="M15.1512 16.25L10.4262 11.525C10.0512 11.825 9.61992 12.0625 9.13242 12.2375C8.64492 12.4125 8.12617 12.5 7.57617 12.5C6.21367 12.5 5.06055 12.0281 4.1168 11.0844C3.17305 10.1406 2.70117 8.9875 2.70117 7.625C2.70117 6.2625 3.17305 5.10938 4.1168 4.16563C5.06055 3.22188 6.21367 2.75 7.57617 2.75C8.93867 2.75 10.0918 3.22188 11.0355 4.16563C11.9793 5.10938 12.4512 6.2625 12.4512 7.625C12.4512 8.175 12.3637 8.69375 12.1887 9.18125C12.0137 9.66875 11.7762 10.1 11.4762 10.475L16.2012 15.2L15.1512 16.25ZM7.57617 11C8.51367 11 9.31055 10.6719 9.9668 10.0156C10.623 9.35938 10.9512 8.5625 10.9512 7.625C10.9512 6.6875 10.623 5.89062 9.9668 5.23438C9.31055 4.57812 8.51367 4.25 7.57617 4.25C6.63867 4.25 5.8418 4.57812 5.18555 5.23438C4.5293 5.89062 4.20117 6.6875 4.20117 7.625C4.20117 8.5625 4.5293 9.35938 5.18555 10.0156C5.8418 10.6719 6.63867 11 7.57617 11Z" fill="#232635"/>
</g>
</svg>
